HIERARCHY
ROOT root
{
	OFFSET 0.000000 0.000000 0.000000
	CHANNELS 6 Xposition Yposition Zposition Zrotation Yrotation Xrotation
	JOINT lhip
	{
		OFFSET 0.058581 -0.082280 -0.017664
		CHANNELS 3 Zrotation Yrotation Xrotation
		JOINT lknee
		{
			OFFSET 0.043451 -0.386469 0.008037
			CHANNELS 3 Zrotation Yrotation Xrotation
			JOINT lankle
			{
				OFFSET -0.014790 -0.426874 -0.037428
				CHANNELS 3 Zrotation Yrotation Xrotation
				JOINT ltoe
				{
					OFFSET 0.041054 -0.060286 0.122042
					CHANNELS 3 Zrotation Yrotation Xrotation
					End Site
					{
						OFFSET 0.000000 0.000000 0.000000
					}
				}
			}
		}
	}
	JOINT rhip
	{
		OFFSET -0.060310 -0.090513 -0.013543
		CHANNELS 3 Zrotation Yrotation Xrotation
		JOINT rknee
		{
			OFFSET -0.043257 -0.383688 -0.004843
			CHANNELS 3 Zrotation Yrotation Xrotation
			JOINT rankle
			{
				OFFSET 0.019056 -0.420046 -0.034562
				CHANNELS 3 Zrotation Yrotation Xrotation
				JOINT rtoe
				{
					OFFSET -0.034840 -0.062106 0.130323
					CHANNELS 3 Zrotation Yrotation Xrotation
					End Site
					{
						OFFSET 0.000000 0.000000 0.000000
					}
				}
			}
		}
	}
	JOINT lowerback
	{
		OFFSET 0.004439 0.124404 -0.038385
		CHANNELS 3 Zrotation Yrotation Xrotation
		JOINT upperback
		{
			OFFSET 0.004488 0.137956 0.026820
			CHANNELS 3 Zrotation Yrotation Xrotation
			JOINT chest
			{
				OFFSET -0.002265 0.056032 0.002855
				CHANNELS 3 Zrotation Yrotation Xrotation
				JOINT lowerneck
				{
					OFFSET -0.013390 0.211636 -0.033468
					CHANNELS 3 Zrotation Yrotation Xrotation
					JOINT upperneck
					{
						OFFSET 0.010113 0.088937 0.050410
						CHANNELS 3 Zrotation Yrotation Xrotation
						End Site
						{
							OFFSET 0.000000 0.000000 0.000000
						}
					}
				}
				JOINT lclavicle
				{
					OFFSET 0.071702 0.114000 -0.018898
					CHANNELS 3 Zrotation Yrotation Xrotation
					JOINT lshoulder
					{
						OFFSET 0.122921 0.045205 -0.019046
						CHANNELS 3 Zrotation Yrotation Xrotation
						JOINT lelbow
						{
							OFFSET 0.255332 -0.015649 -0.022946
							CHANNELS 3 Zrotation Yrotation Xrotation
							JOINT lwrist
							{
								OFFSET 0.265709 0.012698 -0.007375
								CHANNELS 3 Zrotation Yrotation Xrotation
								End Site
								{
									OFFSET 0.000000 0.000000 0.000000
								}
							}
						}
					}
				}
				JOINT rclavicle
				{
					OFFSET -0.082954 0.112472 -0.023707
					CHANNELS 3 Zrotation Yrotation Xrotation
					JOINT rshoulder
					{
						OFFSET -0.113228 0.046853 -0.008472
						CHANNELS 3 Zrotation Yrotation Xrotation
						JOINT relbow
						{
							OFFSET -0.260127 -0.014369 -0.031269
							CHANNELS 3 Zrotation Yrotation Xrotation
							JOINT rwrist
							{
								OFFSET -0.269108 0.006794 -0.006027
								CHANNELS 3 Zrotation Yrotation Xrotation
								End Site
								{
									OFFSET 0.000000 0.000000 0.000000
								}
							}
						}
					}
				}
			}
		}
	}
}
MOTION
Frames: 18
Frame Time: 0.033333
2.362236 0.695998 0.999636 -91.437492 0.586918 85.142335 -0.730978 0.636866 2.400759 -0.204596 -6.220720 2.678400 0.643964 11.636121 -6.872436 0.000000 -0.000000 0.000000 0.342907 -0.757914 -1.967657 -2.394010 0.503702 9.860466 1.477296 -9.634946 -10.219762 0.000000 -0.000000 0.000000 -2.191983 1.103483 5.518687 0.769924 -1.977560 4.933174 -1.315890 0.861206 -3.273950 3.228935 -5.576228 3.268002 3.918018 -3.956698 17.023087 -30.239874 -5.405929 1.416527 -50.734249 -8.822613 18.421939 -1.195832 -19.844315 9.781338 -4.503905 -8.023344 7.084798 28.927154 9.103348 4.148220 53.904568 4.197233 20.678830 -1.925422 24.335779 8.956446 1.673000 7.074006 6.638999 
2.362866 0.695498 0.999536 -91.610549 0.578536 85.254407 -0.799385 0.518946 2.195375 -0.291584 -6.147011 2.866252 0.718080 11.793011 -6.978837 0.000000 -0.000000 0.000000 0.302614 -0.478816 -2.205560 -2.361036 0.529684 9.997999 1.524405 -9.682367 -10.115796 0.000000 -0.000000 0.000000 -2.150623 0.984473 5.473603 0.816420 -1.749549 5.089922 -1.358336 0.863120 -3.422591 3.115368 -5.691819 3.604434 3.801508 -3.738035 17.158933 -30.300602 -5.308508 1.452637 -50.921534 -8.936374 18.829410 -0.921463 -19.576564 9.749358 -4.507699 -7.881173 7.405979 28.656965 9.026171 4.038097 54.218089 4.227745 21.047491 -2.209219 24.359632 8.862175 2.153706 6.909218 6.231167 
2.361734 0.694497 0.999523 -91.367703 0.666089 85.282480 -0.824848 0.422537 2.245090 -0.205253 -6.076894 2.833997 0.775498 11.695711 -7.029818 0.000000 -0.000000 0.000000 0.272376 -0.765188 -1.973766 -2.356595 0.440529 9.709360 1.550110 -9.664212 -10.090662 0.000000 -0.000000 0.000000 -2.105239 1.037578 5.178772 0.970456 -2.096584 5.240824 -1.345931 0.787432 -3.365978 3.056309 -5.636152 4.201765 3.807894 -3.624466 17.404937 -30.428701 -5.234957 1.489993 -50.949031 -8.918907 18.783802 -0.757180 -19.362903 9.596245 -4.699869 -8.085490 7.469381 28.631547 8.879890 3.907406 54.152786 4.158511 20.979960 -2.174850 24.306790 8.962623 2.323490 7.069589 6.550030 
2.360789 0.693328 0.999485 -91.445941 0.723815 85.213306 -0.788621 0.387508 2.441282 -0.216124 -5.914383 2.675317 0.769188 11.630980 -6.974628 0.000000 -0.000000 0.000000 0.225311 -0.897298 -1.813538 -2.324917 0.593799 9.588404 1.754608 -9.484494 -9.964028 0.000000 -0.000000 0.000000 -2.069875 1.166547 4.875078 1.052627 -2.247248 5.632169 -1.331134 0.673181 -3.194328 2.951392 -5.323858 4.504765 3.583888 -3.588291 17.629773 -30.215125 -5.116770 1.442067 -50.946896 -9.015014 18.667547 -1.019777 -19.536510 9.768831 -5.146958 -7.939150 7.545503 28.552139 8.786235 3.855172 54.189759 4.290792 20.926468 -2.353656 24.400884 8.798271 2.632540 6.985761 6.787634 
2.360234 0.692556 0.999642 -91.405783 0.738602 85.212461 -0.812128 0.399635 2.460478 -0.219454 -5.929586 2.683172 0.750635 11.546991 -6.958473 0.000000 -0.000000 0.000000 0.183536 -0.974042 -1.774853 -2.319413 0.571653 9.576136 1.688745 -9.443571 -9.854538 0.000000 -0.000000 0.000000 -2.116389 1.199774 4.725381 1.134112 -2.354587 5.759038 -1.291682 0.627003 -3.167775 2.952203 -5.407851 5.042151 3.575315 -3.595738 17.361352 -30.186113 -5.076548 1.442763 -50.908453 -9.049544 18.651931 -1.137161 -19.571126 9.607650 -5.325770 -7.675858 7.546731 28.527937 8.737700 3.862638 54.166316 4.262996 20.914474 -2.428051 24.435305 8.625401 2.787098 6.866598 6.803146 
2.360421 0.691579 1.000021 -91.693348 0.710905 85.221871 -0.884539 0.448431 2.461350 -0.284653 -5.860320 2.699778 0.833805 11.706000 -6.985226 0.000000 -0.000000 0.000000 0.103824 -0.805054 -1.953634 -2.286547 0.672285 9.790784 1.738864 -9.375107 -9.952933 0.000000 -0.000000 0.000000 -2.168135 1.109466 4.851188 1.087343 -2.237576 5.650217 -1.276833 0.696641 -3.135722 2.997264 -5.261422 5.192295 3.644322 -3.537772 17.889483 -30.094861 -5.081823 1.423907 -50.874054 -9.029792 18.705924 -1.157734 -19.457938 9.546644 -4.694735 -7.840761 7.519155 28.716198 8.767971 3.948680 54.035165 4.279933 20.946927 -2.518891 24.473812 8.347855 2.021660 7.205524 6.784879 
2.358875 0.690691 1.000307 -91.263970 0.889035 85.468436 -0.713810 0.350412 2.196401 -0.314759 -5.891467 2.801753 0.746664 11.377936 -6.961400 0.000000 -0.000000 0.000000 0.153725 -1.269341 -1.856290 -2.253260 0.581998 9.372259 1.684161 -9.381791 -9.821674 0.000000 -0.000000 0.000000 -2.124493 1.314479 4.207055 1.310700 -2.738324 6.104755 -1.223692 0.447814 -3.318380 3.028534 -5.245342 5.453484 3.412402 -3.566570 18.203102 -30.273121 -4.930624 1.452479 -50.758654 -9.012578 18.682391 -1.229834 -19.409858 9.548123 -4.773946 -8.105339 7.810558 28.916264 8.480501 3.922034 53.657090 4.153216 20.842706 -2.485219 24.215536 8.575839 2.552754 7.481219 7.642068 
2.358414 0.689571 1.000288 -91.453446 0.872864 85.361015 -0.821749 0.407582 2.397798 -0.231581 -5.849271 2.659828 0.681063 11.369638 -6.902763 0.000000 -0.000000 0.000000 0.001930 -1.287757 -1.753909 -2.147874 0.689410 9.380918 1.773254 -9.235498 -9.704724 0.000000 -0.000000 0.000000 -2.085008 1.321007 4.263832 1.237738 -2.716969 6.094841 -1.240361 0.458747 -3.119027 3.070894 -5.153981 5.659780 3.354121 -3.457620 18.211841 -30.085157 -4.850755 1.417680 -50.728610 -9.134429 18.636112 -1.324592 -19.640705 9.646443 -4.560428 -8.175343 7.485031 28.800690 8.355355 3.820721 53.775462 4.402695 20.852408 -2.269997 24.371829 8.464363 2.353687 7.051710 7.098427 
2.360239 0.689395 1.000191 -92.232455 0.800401 85.260109 -0.898638 0.630667 2.567798 -0.289359 -5.618061 2.460298 0.882249 11.771681 -6.842678 0.000000 -0.000000 0.000000 0.075518 -0.629511 -2.126809 -2.286213 0.795500 9.905846 1.745608 -9.157611 -9.830489 0.000000 -0.000000 0.000000 -2.060148 1.036006 5.002859 1.054945 -2.051916 5.658940 -1.256419 0.705760 -3.122161 2.984049 -4.953486 5.745863 3.382451 -3.212397 18.418673 -29.972888 -4.955264 1.290769 -50.909496 -9.200513 18.755094 -1.143447 -19.471667 9.613340 -4.824312 -8.173521 7.440248 28.723937 8.622802 3.904925 53.978745 4.495258 21.026055 -2.594850 24.442120 8.272362 2.506187 7.052444 6.630149 
2.358121 0.688733 1.000413 -91.823797 0.977561 85.241501 -0.753774 0.532860 2.823867 -0.228480 -5.732136 2.259302 0.825957 11.541390 -6.827493 0.000000 -0.000000 0.000000 0.128464 -1.169057 -1.592785 -2.251879 0.780673 9.306258 1.699598 -9.103168 -9.686690 0.000000 -0.000000 0.000000 -2.012356 1.264431 4.363386 1.254568 -2.667585 6.341256 -1.276983 0.601362 -3.140265 2.893786 -4.766091 6.013262 3.399618 -3.196191 18.655917 -30.169848 -5.026107 1.398874 -50.725664 -9.256149 18.613350 -1.225767 -19.516090 9.583090 -4.970198 -8.273161 7.696958 28.839491 8.587377 3.929544 53.783298 4.483800 20.875104 -2.550329 24.235741 8.345838 2.714573 7.345203 7.288168 
2.358359 0.688237 0.999773 -92.066803 0.952071 85.286581 -0.835586 0.634483 2.857710 -0.195447 -5.670813 2.053586 0.824271 11.685625 -6.700401 0.000000 -0.000000 0.000000 0.107895 -0.840037 -1.770445 -2.267586 0.834339 9.443585 1.736273 -9.107061 -9.621798 0.000000 -0.000000 0.000000 -1.989806 1.040089 4.554213 1.165056 -2.339524 6.131331 -1.285167 0.619177 -3.002059 2.990225 -4.715174 5.719295 3.273629 -3.054927 19.126135 -30.093102 -4.963052 1.402260 -50.918815 -9.327600 18.747540 -0.962755 -19.597287 9.976594 -4.864837 -8.255065 7.887470 28.714595 8.538352 3.901193 53.844265 4.677846 21.006908 -2.446148 24.234480 8.662490 2.630345 7.259543 7.234825 
2.357712 0.687563 1.000266 -91.962088 0.982154 85.315689 -0.855300 0.573373 2.890498 -0.144241 -5.723557 2.036612 0.863367 11.628084 -6.808617 0.000000 -0.000000 0.000000 0.031129 -1.115215 -1.687945 -2.213705 0.898183 9.323262 1.833220 -9.128633 -9.640924 0.000000 -0.000000 0.000000 -1.999073 1.190506 4.414865 1.189623 -2.575674 6.285106 -1.342941 0.595170 -3.075292 3.021985 -4.685021 5.715166 3.280600 -2.913244 19.417380 -30.170550 -4.876815 1.338171 -50.764981 -9.435021 18.778309 -1.164431 -19.563757 10.129637 -4.562608 -8.339021 7.861902 28.883143 8.342310 3.934788 53.758049 4.730270 20.923501 -2.444617 24.313362 8.370108 2.478778 7.405311 7.226046 
2.357606 0.686848 1.000662 -91.889091 0.959142 85.457669 -0.918514 0.515872 2.679190 -0.199949 -5.683454 2.174146 0.869219 11.537512 -6.801113 0.000000 -0.000000 0.000000 -0.080639 -1.107320 -1.836135 -2.142030 0.807084 9.369219 1.906383 -9.077444 -9.726750 0.000000 -0.000000 0.000000 -2.030428 1.180062 4.119372 1.199724 -2.691322 6.740103 -1.384363 0.525596 -3.304583 2.953637 -4.611935 6.135591 3.171233 -2.967460 19.150922 -30.161607 -4.906634 1.209957 -50.737702 -9.521680 18.730766 -1.269004 -19.367605 9.822154 -4.890421 -8.411349 8.121510 28.956391 8.274121 3.893514 53.715598 4.796827 20.805859 -2.421284 24.196670 8.379597 2.699754 7.502658 7.774325 
2.357801 0.686435 1.000417 -92.030999 0.974952 85.410066 -1.069365 0.591482 2.890807 0.016377 -5.773130 1.877386 0.848736 11.715369 -6.733113 0.000000 -0.000000 0.000000 -0.025429 -0.914747 -1.917998 -2.223847 0.781846 9.586401 1.789093 -9.189015 -9.813632 0.000000 -0.000000 0.000000 -1.875628 1.060363 4.462842 1.075421 -2.457332 6.391149 -1.443330 0.573569 -3.129857 2.869782 -4.520876 5.806336 3.121563 -2.823111 19.525619 -30.227453 -5.002682 1.293793 -50.799035 -9.563584 18.746465 -1.181522 -19.504656 9.871236 -4.816903 -8.346578 7.845195 28.890664 8.352028 3.995878 53.842470 4.818211 20.910003 -2.566047 24.505575 8.165332 2.466276 7.206719 7.118450 
2.360418 0.686787 0.999695 -92.781081 0.821640 85.492657 -1.184206 0.665669 2.540937 -0.171981 -5.417670 2.129547 1.083969 12.154814 -6.818572 0.000000 -0.000000 0.000000 -0.038460 -0.195159 -2.729631 -2.305714 0.837069 10.427057 1.675910 -9.190049 -9.854820 0.000000 -0.000000 0.000000 -2.021655 0.788549 5.161321 0.946619 -1.786415 5.935779 -1.463946 0.800151 -3.129470 2.797054 -4.346489 5.422729 3.123362 -2.636540 19.685830 -30.063308 -5.078628 1.180826 -50.987577 -9.792573 18.737998 -1.083643 -19.560944 9.313789 -4.867767 -8.350562 7.527573 28.770782 8.708329 3.960632 54.025317 4.964935 21.208581 -2.544591 24.088571 8.338870 2.500368 7.328097 7.142690 
2.360048 0.686555 0.999566 -92.500396 0.915530 85.541301 -1.143322 0.579997 2.526339 -0.092809 -5.553870 2.109505 1.026638 11.990368 -6.836443 0.000000 -0.000000 0.000000 0.037592 -0.399941 -2.704793 -2.301903 0.754198 10.378568 1.665546 -9.170340 -9.793155 0.000000 -0.000000 0.000000 -1.978112 0.816104 5.067478 0.973114 -2.063957 6.027035 -1.453311 0.810833 -3.068708 2.814842 -4.440102 5.496917 3.188025 -2.617026 19.422365 -30.271665 -5.322907 1.378819 -50.873994 -9.734547 18.850505 -1.012891 -19.702639 9.554533 -4.494313 -8.167470 7.454566 28.824425 8.753483 4.146844 53.918635 5.042645 21.115650 -2.589612 24.465812 8.171352 2.404092 7.133315 6.622204 
2.359722 0.686215 0.999356 -92.416880 0.948476 85.530327 -1.164404 0.492638 2.526047 -0.066204 -5.582311 2.155594 1.039282 11.931778 -6.924366 0.000000 -0.000000 0.000000 0.004284 -0.525042 -2.695802 -2.261967 0.802356 10.430568 1.785340 -9.174565 -9.720072 0.000000 -0.000000 0.000000 -1.945836 0.884542 5.069943 0.997177 -2.221035 6.219069 -1.485030 0.730451 -3.085948 2.822338 -4.354833 5.457668 3.171241 -2.500724 19.308444 -30.219024 -5.369594 1.302526 -50.951750 -9.705380 18.866769 -1.078385 -19.877042 9.431160 -4.297447 -7.807435 7.376869 28.728310 8.807375 4.037814 54.026733 5.096985 21.127281 -2.632739 24.574288 7.977912 2.395228 6.906600 6.518759 
2.359710 0.685890 0.999067 -92.375554 0.938882 85.586246 -1.183802 0.476660 2.331163 -0.093995 -5.456283 2.366676 1.074521 11.904982 -6.952028 0.000000 -0.000000 0.000000 -0.117692 -0.549821 -2.901621 -2.146692 0.703447 10.689311 1.748661 -9.141776 -9.870057 0.000000 -0.000000 0.000000 -2.002174 0.918153 5.030352 1.019147 -2.348495 6.351515 -1.476076 0.699860 -3.107060 2.829863 -4.306394 5.796773 3.159759 -2.560917 19.002102 -30.077994 -5.384118 1.279371 -51.131319 -9.817973 18.753254 -1.026321 -19.783656 9.172632 -4.411194 -7.852292 7.357502 28.678091 8.880870 4.127268 54.073297 5.232111 21.069228 -2.678143 24.549598 7.929924 2.416788 6.916855 6.619170 
